<?xml version="1.0" standalone="no"?>
<!DOCTYPE svg PUBLIC "-//W3C//DTD SVG 20010904//EN"
 "http://www.w3.org/TR/2001/REC-SVG-20010904/DTD/svg10.dtd">
<svg version="1.0" xmlns="http://www.w3.org/2000/svg"
 width="976.000000pt" height="201.000000pt" viewBox="0 0 976.000000 201.000000"
 preserveAspectRatio="xMidYMid meet">

<g transform="translate(0.000000,201.000000) scale(0.100000,-0.100000)"
fill="#000000" stroke="none">
<path d="M1065 1961 c-43 -19 -70 -51 -81 -95 l-6 -26 -374 0 c-348 0 -375 1
-381 18 -22 64 -110 86 -157 39 -43 -43 -46 -199 -5 -251 37 -47 132 -38 152
15 l11 29 454 0 454 0 -6 -27 c-3 -16 -8 -45 -12 -65 -5 -31 -28 -57 -165
-183 -136 -124 -159 -150 -159 -175 0 -19 7 -33 20 -40 26 -14 918 -14 954 0
26 10 40 38 31 63 -4 8 -76 79 -161 157 -97 89 -153 148 -150 156 3 8 8 36 12
64 l7 50 126 0 126 0 17 -30 c24 -43 63 -56 113 -39 52 18 65 46 65 147 0 121
-20 152 -96 152 -46 0 -70 -14 -89 -51 -16 -29 -17 -30 -88 -27 l-71 3 -7 33
c-26 128 -209 133 -268 7 -17 -37 -26 -46 -43 -43 -16 2 -24 12 -29 36 -9 43
-44 80 -88 92 -49 13 -60 12 -106 -9z m136 -47 c10 -11 20 -30 21 -44 l3 -25
-102 -3 c-96 -3 -103 -1 -103 17 0 10 16 33 37 51 32 29 41 32 81 27 24 -3 53
-13 63 -23z m318 11 c30 -15 41 -33 41 -66 0 -17 -8 -19 -100 -19 -89 0 -100
2 -100 18 0 20 27 55 55 70 28 16 71 15 104 -3z m-1349 -55 c17 -17 20 -33 20
-103 0 -95 -15 -121 -66 -115 -39 4 -54 38 -54 126 0 78 18 112 60 112 11 0
29 -9 40 -20z m1728 -2 c20 -16 16 -177 -5 -200 -19 -21 -52 -23 -77 -5 -40
29 -30 209 12 220 21 5 52 -2 70 -15z m-688 -63 c0 -2 -14 -20 -31 -40 l-31
-35 -459 0 -459 0 0 40 0 40 490 0 c270 0 490 -2 490 -5z m330 -7 c0 -7 -12
-25 -27 -40 l-27 -28 -139 0 c-76 0 -137 3 -135 8 2 4 12 22 23 39 l20 33 143
0 c103 0 142 -3 142 -12z m210 -28 l0 -40 -101 0 c-55 0 -99 3 -97 8 2 4 12
22 23 39 20 33 21 33 98 33 l77 0 0 -40z m-284 -97 c-3 -10 -8 -39 -11 -65 -7
-43 -14 -53 -84 -117 l-77 -69 -76 68 -75 69 9 53 c5 29 11 59 13 66 3 9 44
12 155 12 139 0 151 -1 146 -17z m-266 -214 l64 -60 -67 -66 c-37 -36 -67 -74
-67 -83 0 -16 -16 -18 -134 -25 -132 -7 -180 -2 -174 16 5 15 292 278 303 278
6 0 39 -27 75 -60z m416 -71 c79 -73 144 -138 144 -145 0 -10 -35 -13 -149
-13 l-149 0 -6 24 c-3 14 -35 51 -71 83 l-64 57 67 63 c37 34 71 62 75 63 5 0
73 -60 153 -132z m-198 -142 c3 -14 -12 -16 -127 -16 -72 0 -131 4 -131 9 0 5
30 36 67 69 l68 61 60 -53 c33 -30 61 -61 63 -70z"/>
<path d="M204 1500 c-60 -24 -83 -113 -44 -163 l20 -26 -21 -40 c-25 -48 -20
-98 11 -126 19 -17 19 -18 -5 -47 -29 -34 -34 -93 -10 -124 16 -21 20 -38 7
-30 -17 11 -79 -15 -107 -44 -54 -57 -33 -155 41 -186 l34 -14 2 -328 3 -327
70 -3 c38 -2 80 0 92 3 l23 5 0 325 0 325 59 0 59 0 4 -148 c2 -107 7 -154 17
-165 12 -15 40 -17 215 -17 154 0 207 3 221 13 16 12 19 33 23 165 l5 152 368
0 369 0 2 -327 3 -328 89 -3 c65 -2 92 1 98 10 4 7 8 155 8 330 l0 316 35 21
c93 54 78 192 -23 221 -23 6 -213 10 -499 10 -395 0 -463 2 -463 14 0 33 -30
46 -106 46 l-74 0 0 33 c0 17 -9 43 -20 57 -19 25 -19 25 3 48 16 17 22 36 22
67 0 31 -6 50 -22 67 -22 23 -22 23 -3 48 43 56 18 146 -47 171 -30 11 -430
11 -459 -1z m475 -56 c12 -15 21 -34 21 -44 0 -10 -9 -29 -21 -44 l-20 -26
-221 0 c-249 0 -258 2 -258 68 0 70 6 72 256 72 l223 0 20 -26z m-5 -175 c34
-27 35 -71 1 -104 -24 -25 -25 -25 -233 -25 -197 0 -211 1 -236 21 -36 28 -36
80 0 108 25 20 39 21 234 21 195 0 209 -1 234 -21z m2 -192 c13 -15 24 -37 24
-48 0 -18 -8 -19 -106 -19 -107 0 -144 -9 -144 -35 0 -12 -21 -15 -118 -15
-106 0 -121 2 -137 20 -34 38 -19 100 30 121 11 5 112 7 223 6 l204 -2 24 -28z
m202 -386 c3 -299 4 -291 -55 -291 l-32 0 -3 73 c-2 56 -6 72 -18 72 -12 0
-16 -16 -18 -73 l-3 -73 -72 3 -72 3 -3 143 c-2 116 -5 142 -17 142 -12 0 -15
-26 -17 -142 l-3 -143 -40 0 -40 0 -3 283 -2 282 197 -2 198 -3 3 -274z m-438
134 l0 -85 -165 0 c-163 0 -166 0 -190 25 -34 33 -34 84 1 119 27 26 27 26
190 26 l164 0 0 -85z m1433 73 c53 -28 64 -92 22 -133 l-24 -25 -476 0 -475 0
0 85 0 85 466 0 c334 0 471 -3 487 -12z m-1583 -508 l0 -310 -65 0 -65 0 0
310 0 310 65 0 65 0 0 -310z m1530 0 l0 -310 -60 0 -60 0 0 310 0 310 60 0 60
0 0 -310z"/>
<path d="M6909 1475 c-82 -26 -129 -101 -129 -205 0 -44 -2 -47 -50 -75 l-50
-30 0 -57 0 -58 45 0 45 0 0 -260 0 -260 120 0 120 0 0 260 0 260 70 0 70 0 0
85 0 85 -70 0 -70 0 0 34 c0 48 28 66 90 59 l47 -5 26 75 25 75 -47 12 c-75
19 -190 22 -242 5z"/>
<path d="M2973 1425 c-213 -60 -329 -247 -309 -501 17 -225 115 -349 307 -390
88 -19 206 -13 295 14 l59 18 3 101 3 101 -78 -25 c-62 -19 -94 -24 -155 -21
-90 4 -119 20 -158 89 -32 59 -40 198 -16 283 40 138 142 176 310 117 33 -11
61 -20 62 -18 2 2 19 43 38 92 24 64 31 92 23 97 -83 46 -292 69 -384 43z"/>
<path d="M5130 975 l0 -446 118 3 117 3 3 163 2 162 29 0 c27 0 36 -12 121
-157 50 -87 95 -162 99 -166 4 -4 67 -6 139 -5 l131 3 -129 191 -129 191 51
43 c73 62 102 130 96 221 -9 124 -74 194 -207 226 -36 8 -125 13 -248 13
l-193 0 0 -445z m381 236 c19 -20 29 -40 29 -60 0 -72 -44 -111 -125 -111
l-45 0 0 100 0 100 56 0 c48 0 59 -4 85 -29z"/>
<path d="M3715 1230 c-66 -11 -152 -35 -174 -49 -22 -14 45 -165 68 -155 56
24 151 44 186 40 45 -5 75 -35 75 -72 0 -22 -4 -24 -49 -24 -71 0 -195 -19
-235 -35 -48 -20 -97 -64 -112 -102 -8 -18 -14 -61 -13 -95 1 -95 24 -142 89
-188 31 -22 45 -25 120 -24 95 0 136 14 192 63 l36 32 24 -43 23 -43 83 -3 82
-3 0 235 c0 261 -8 316 -51 376 -57 78 -192 113 -344 90z m155 -436 c0 -62
-40 -104 -99 -104 -23 0 -46 7 -55 16 -24 23 -20 77 7 101 29 27 43 31 100 32
l47 1 0 -46z"/>
<path d="M4649 1230 c-56 -10 -96 -30 -128 -64 -14 -14 -28 -26 -31 -26 -4 0
-14 18 -23 40 l-15 40 -91 0 -91 0 0 -345 0 -345 120 0 120 0 0 191 c0 107 5
210 11 235 23 90 116 124 163 61 20 -27 21 -43 24 -258 l3 -229 120 0 119 0 0
238 c0 260 -10 329 -55 388 -46 60 -149 91 -246 74z"/>
<path d="M6200 1230 c-68 -9 -149 -49 -185 -92 -16 -18 -40 -58 -54 -88 -23
-49 -26 -67 -26 -170 0 -110 1 -118 33 -182 37 -75 72 -110 152 -147 51 -24
65 -26 185 -25 102 0 142 4 185 20 l55 19 3 87 3 86 -68 -24 c-148 -52 -286
-22 -308 68 l-7 28 213 2 214 3 -1 91 c-3 152 -46 239 -145 289 -38 20 -165
49 -189 43 -3 0 -30 -4 -60 -8z m153 -191 c15 -16 27 -40 27 -54 0 -25 0 -25
-100 -25 -94 0 -100 1 -100 20 0 39 29 79 63 89 45 12 78 4 110 -30z"/>
<path d="M7500 1230 c-85 -12 -135 -37 -189 -96 -67 -73 -86 -131 -85 -259 1
-134 24 -195 99 -264 72 -65 132 -86 250 -85 97 0 155 18 222 70 99 75 140
264 92 420 -17 56 -30 77 -77 123 -81 80 -180 109 -312 91z m122 -190 c61 -47
65 -254 7 -316 -19 -21 -31 -24 -68 -22 -39 3 -49 8 -68 36 -52 79 -37 275 24
311 29 17 78 12 105 -9z"/>
<path d="M8424 1231 c-40 -10 -90 -45 -129 -89 l-31 -35 -19 57 -19 56 -88 0
-88 0 0 -345 0 -346 118 3 117 3 3 198 c2 163 5 203 19 223 25 39 65 54 141
54 l70 0 6 83 c4 45 9 94 12 110 4 19 2 27 -9 27 -8 0 -27 2 -43 4 -16 3 -43
1 -60 -3z"/>
<path d="M9003 1230 c-54 -11 -97 -34 -121 -65 -27 -34 -37 -32 -51 15 l-12
40 -89 0 -90 0 0 -345 0 -345 115 0 115 0 0 168 c0 187 11 275 38 312 23 31
61 45 96 36 49 -12 56 -50 56 -296 l0 -220 120 0 120 0 0 198 c0 211 8 261 46
299 34 34 89 29 118 -10 20 -27 21 -43 24 -258 l4 -229 114 0 114 0 0 263 c0
156 -4 278 -11 301 -17 62 -73 113 -144 131 -100 25 -185 6 -252 -58 l-32 -30
-39 35 c-58 52 -152 75 -239 58z"/>
</g>
</svg>
